HIERARCHY
ROOT hip
{
  OFFSET 0 0 0
  CHANNELS 6 Xposition Yposition Zposition Zrotation Yrotation Xrotation
  JOINT abdomen
  {
    OFFSET 0 20.6881 -0.73152
    CHANNELS 3 Zrotation Xrotation Yrotation
    JOINT chest
    {
      OFFSET 0 11.7043 -0.48768
      CHANNELS 3 Zrotation Xrotation Yrotation
      JOINT neck
      {
        OFFSET 0 22.1894 -2.19456
        CHANNELS 3 Zrotation Xrotation Yrotation
        JOINT head
        {
          OFFSET -0.24384 7.07133 1.2192
          CHANNELS 3 Zrotation Xrotation Yrotation
          JOINT leftEye
          {
            OFFSET 4.14528 8.04674 8.04672
            CHANNELS 3 Zrotation Xrotation Yrotation
            End Site
            {
              OFFSET 1 0 0
            }
          }
          JOINT rightEye
          {
            OFFSET -3.6576 8.04674 8.04672
            CHANNELS 3 Zrotation Xrotation Yrotation
            End Site
            {
              OFFSET 1 0 0
            }
          }
        }
      }
      JOINT rCollar
      {
        OFFSET -2.68224 19.2634 -4.8768
        CHANNELS 3 Zrotation Xrotation Yrotation
        JOINT rShldr
        {
          OFFSET -8.77824 -1.95073 1.46304
          CHANNELS 3 Zrotation Xrotation Yrotation
          JOINT rForeArm
          {
            OFFSET -28.1742 -1.7115 0.48768
            CHANNELS 3 Zrotation Xrotation Yrotation
            JOINT rHand
            {
              OFFSET -22.5879 0.773209 7.07136
              CHANNELS 3 Zrotation Xrotation Yrotation
              JOINT rThumb1
              {
                OFFSET -1.2192 -0.487915 3.41376
                CHANNELS 3 Zrotation Xrotation Yrotation
                JOINT rThumb2
                {
                  OFFSET -3.37035 -0.52449 3.41376
                  CHANNELS 3 Zrotation Xrotation Yrotation
                  End Site
                  {
                    OFFSET -1.78271 -1.18214 1.43049
                  }
                }
              }
              JOINT rIndex1
              {
                OFFSET -7.75947 0.938293 5.60832
                CHANNELS 3 Zrotation Xrotation Yrotation
                JOINT rIndex2
                {
                  OFFSET -2.54057 -0.884171 1.56538
                  CHANNELS 3 Zrotation Xrotation Yrotation
                  End Site
                  {
                    OFFSET -1.62519 -0.234802 1.16502
                  }
                }
              }
              JOINT rMid1
              {
                OFFSET -8.24714 1.18213 3.41376
                CHANNELS 3 Zrotation Xrotation Yrotation
                JOINT rMid2
                {
                  OFFSET -3.10165 -0.590103 1.0647
                  CHANNELS 3 Zrotation Xrotation Yrotation
                  End Site
                  {
                    OFFSET -2.48547 -0.328903 0.83742
                  }
                }
              }
              JOINT rRing1
              {
                OFFSET -8.82822 0.546677 1.51678
                CHANNELS 3 Zrotation Xrotation Yrotation
                JOINT rRing2
                {
                  OFFSET -2.60934 -0.819778 -0.0198488
                  CHANNELS 3 Zrotation Xrotation Yrotation
                  End Site
                  {
                    OFFSET -2.33842 -0.294052 0.168128
                  }
                }
              }
              JOINT rPinky1
              {
                OFFSET -8.27202 -0.0477905 -0.4584
                CHANNELS 3 Zrotation Xrotation Yrotation
                JOINT rPinky2
                {
                  OFFSET -1.82734 -0.647385 -0.700984
                  CHANNELS 3 Zrotation Xrotation Yrotation
                  End Site
                  {
                    OFFSET -1.69225 -0.51767 -0.607171
                  }
                }
              }
            }
          }
        }
      }
      JOINT lCollar
      {
        OFFSET 2.68224 19.2634 -4.8768
        CHANNELS 3 Zrotation Xrotation Yrotation
        JOINT lShldr
        {
          OFFSET 8.77824 -1.95073 1.46304
          CHANNELS 3 Zrotation Xrotation Yrotation
          JOINT lForeArm
          {
            OFFSET 28.1742 -1.7115 0.48768
            CHANNELS 3 Zrotation Xrotation Yrotation
            JOINT lHand
            {
              OFFSET 22.5879 0.773209 7.07136
              CHANNELS 3 Zrotation Xrotation Yrotation
              JOINT lThumb1
              {
                OFFSET 1.2192 -0.487915 3.41376
                CHANNELS 3 Zrotation Xrotation Yrotation
                JOINT lThumb2
                {
                  OFFSET 3.37035 -0.52449 3.41376
                  CHANNELS 3 Zrotation Xrotation Yrotation
                  End Site
                  {
                    OFFSET 1.78271 -1.18214 1.43049
                  }
                }
              }
              JOINT lIndex1
              {
                OFFSET 7.75947 0.938293 5.60832
                CHANNELS 3 Zrotation Xrotation Yrotation
                JOINT lIndex2
                {
                  OFFSET 2.54057 -0.884171 1.56538
                  CHANNELS 3 Zrotation Xrotation Yrotation
                  End Site
                  {
                    OFFSET 1.62519 -0.234802 1.16502
                  }
                }
              }
              JOINT lMid1
              {
                OFFSET 8.24714 1.18213 3.41376
                CHANNELS 3 Zrotation Xrotation Yrotation
                JOINT lMid2
                {
                  OFFSET 3.10165 -0.590103 1.0647
                  CHANNELS 3 Zrotation Xrotation Yrotation
                  End Site
                  {
                    OFFSET 2.48547 -0.328903 0.83742
                  }
                }
              }
              JOINT lRing1
              {
                OFFSET 8.82822 0.546677 1.51678
                CHANNELS 3 Zrotation Xrotation Yrotation
                JOINT lRing2
                {
                  OFFSET 2.60934 -0.819778 -0.0198488
                  CHANNELS 3 Zrotation Xrotation Yrotation
                  End Site
                  {
                    OFFSET 2.33842 -0.294052 0.168128
                  }
                }
              }
              JOINT lPinky1
              {
                OFFSET 8.27202 -0.0477905 -0.4584
                CHANNELS 3 Zrotation Xrotation Yrotation
                JOINT lPinky2
                {
                  OFFSET 1.82734 -0.647385 -0.700984
                  CHANNELS 3 Zrotation Xrotation Yrotation
                  End Site
                  {
                    OFFSET 1.69225 -0.51767 -0.607171
                  }
                }
              }
            }
          }
        }
      }
    }
  }
  JOINT rButtock
  {
    OFFSET -8.77824 4.35084 1.2192
    CHANNELS 3 Zrotation Xrotation Yrotation
    JOINT rThigh
    {
      OFFSET 0 -1.70687 -2.19456
      CHANNELS 3 Zrotation Xrotation Yrotation
      JOINT rShin
      {
        OFFSET 0 -36.8199 0.73152
        CHANNELS 3 Zrotation Xrotation Yrotation
        JOINT rFoot
        {
          OFFSET 0.73152 -45.1104 -5.12064
          CHANNELS 3 Zrotation Xrotation Yrotation
          End Site
          {
            OFFSET -1.1221 -3.69964 12.103
          }
        }
      }
    }
  }
  JOINT lButtock
  {
    OFFSET 8.77824 4.35084 1.2192
    CHANNELS 3 Zrotation Xrotation Yrotation
    JOINT lThigh
    {
      OFFSET 0 -1.70687 -2.19456
      CHANNELS 3 Zrotation Xrotation Yrotation
      JOINT lShin
      {
        OFFSET 0 -36.8199 0.73152
        CHANNELS 3 Zrotation Xrotation Yrotation
        JOINT lFoot
        {
          OFFSET -0.73152 -45.1104 -5.12064
          CHANNELS 3 Zrotation Xrotation Yrotation
          End Site
          {
            OFFSET 1.1221 -3.69964 12.103
          }
        }
      }
    }
  }
}
MOTION
Frames:	5
Frame Time:	0.00833333
-141.034 85.1237 41.8263 0.0 0.0 0.0 0.435973 -0.0238512 0.0128201 0.121275 -0.0396248 0.0210493 3.62208e-16 -7.95139e-16 -3.10601e-17 1.15544e-15 3.18055e-15 -8.85213e-17 -0.0 0.0 0.0 -0.0 0.0 0.0 2.47945e-16 1.3647e-16 9.93923e-17 6.28249e-15 2.99419e-15 7.95139e-16 7.87187e-14 7.25564e-14 -2.22639e-14 7.31087e-13 4.79692e-13 -5.725e-14 1.75672e-12 1.18867e-12 -1.49486e-13 3.02908e-12 2.04828e-12 -2.71142e-13 1.76242e-12 1.19191e-12 -1.55847e-13 7.73091 5.47488 0.417314 1.75586e-12 1.18933e-12 -1.52667e-13 2.90554 0.965183 0.102902 1.76631e-12 1.18873e-12 -1.54257e-13 10.2786 0.731801 0.0259123 1.74931e-12 1.19032e-12 -1.52667e-13 2.22167 -0.733487 -0.20892 2.49028e-16 1.37441e-16 -9.93923e-17 8.70556e-16 2.68359e-15 -1.39149e-15 5.13858e-14 1.06549e-13 1.27222e-14 7.49573e-13 4.25325e-13 -8.5875e-14 1.74322e-12 1.14782e-12 -1.62208e-13 3.01278e-12 1.97194e-12 -2.67962e-13 1.73579e-12 1.15136e-12 -1.52667e-13 -7.73091 5.47488 -0.417314 1.74294e-12 1.14768e-12 -1.65389e-13 -2.90554 0.965183 -0.102902 1.73643e-12 1.14768e-12 -1.56642e-13 -10.2786 0.731801 -0.0259123 1.74434e-12 1.14818e-12 -1.59028e-13 -2.22167 -0.733487 0.20892 -2.03217e-16 0.0 -3.88251e-19 0.651938 -4.7111 -0.0694751 -0.000843733 2.99808 0.00382198 -0.32633 1.72324 0.0697813 2.03217e-16 0.0 3.88251e-19 0.0330975 -2.68025 0.0231611 0.00579529 -0.679761 0.0505448 0.296203 3.3702 -0.096686
-143.754 82.9741 28.3634 -176.782 -31.9082 -168.493 -0.238139 -0.133454 0.79095 1.09287 -4.18594 0.284956 -3.80587 0.210047 -2.14873 7.97718 0.304652 -3.97863 -0.0 0.0 0.0 -0.0 0.0 0.0 2.15043e-14 -1.22375e-14 2.0202e-13 18.0733 14.6937 -2.43036 -6.31713 -3.46356 9.13749 0.0200459 -3.14259 -0.439268 3.73263e-10 9.80306e-10 -2.4835e-10 6.49398e-10 1.69493e-09 -4.28508e-10 3.73268e-10 9.80305e-10 -2.48359e-10 7.73091 5.47488 0.417314 3.73262e-10 9.80306e-10 -2.48353e-10 2.90554 0.965183 0.102902 3.73273e-10 9.80306e-10 -2.48353e-10 10.2786 0.731801 0.0259123 3.73256e-10 9.80308e-10 -2.4835e-10 2.22167 -0.733487 -0.20892 2.14874e-14 -1.22378e-14 2.01807e-13 -20.3846 -0.127408 2.59305 2.91534 -1.14071 -4.73385 -0.102838 7.12846 -0.974122 -1.05506e-09 -7.58232e-10 9.6041e-10 -1.79822e-09 -1.31232e-09 1.68189e-09 -1.05507e-09 -7.58229e-10 9.60421e-10 -7.73091 5.47488 -0.417314 -1.05506e-09 -7.58232e-10 9.6041e-10 -2.90554 0.965183 -0.102902 -1.05507e-09 -7.58232e-10 9.60416e-10 -10.2786 0.731801 -0.0259123 -1.05506e-09 -7.58231e-10 9.60412e-10 -2.22167 -0.733487 0.20892 -2.03217e-16 0.0 -3.88251e-19 0.39902 -11.7403 7.04454 -0.0105671 3.64837 -0.0709218 -0.76991 -6.36716 -9.19719 2.03217e-16 0.0 3.88251e-19 -1.19637 -5.79135 -3.99892 0.0135962 2.30095 0.0160566 0.609895 -2.44354 5.07007
-143.632 83.0973 28.6842 -176.424 -31.5075 -168.766 -0.950138 -0.248362 1.61837 2.16236 -8.57131 0.569718 -7.82397 0.436682 -4.42557 16.4715 0.606312 -8.18886 -0.0 0.0 0.0 -0.0 0.0 0.0 4.5664e-14 -3.04526e-14 4.22977e-13 38.7184 30.1049 -5.58874 -11.811 -6.8335 18.9054 -0.0114366 -6.45435 -0.906679 7.70392e-10 2.05949e-09 -5.15175e-10 1.34047e-09 3.56089e-09 -8.88929e-10 7.70397e-10 2.05949e-09 -5.15186e-10 7.73091 5.47488 0.417314 7.70392e-10 2.05949e-09 -5.15176e-10 2.90554 0.965183 0.102902 7.70403e-10 2.05949e-09 -5.15176e-10 10.2786 0.731801 0.0259123 7.70386e-10 2.0595e-09 -5.15171e-10 2.22167 -0.733487 -0.20892 4.56308e-14 -3.04547e-14 4.2275e-13 -41.918 -0.273971 5.33322 5.78452 -2.31574 -9.73043 0.0603877 14.6879 -2.05964 -2.22674e-09 -1.60385e-09 1.99903e-09 -3.79578e-09 -2.7759e-09 3.50141e-09 -2.22675e-09 -1.60385e-09 1.99905e-09 -7.73091 5.47488 -0.417314 -2.22674e-09 -1.60385e-09 1.99904e-09 -2.90554 0.965183 -0.102902 -2.22674e-09 -1.60385e-09 1.99904e-09 -10.2786 0.731801 -0.0259123 -2.22674e-09 -1.60385e-09 1.99904e-09 -2.22167 -0.733487 0.20892 -2.03217e-16 0.0 -3.88251e-19 2.12752 -18.7656 15.1904 -0.0193536 4.27149 -0.153731 -4.11364 -14.2886 -19.5407 2.03217e-16 0.0 3.88251e-19 -2.97751 -9.02368 -8.31438 0.0261274 5.45647 -0.0188238 2.07632 -8.45323 10.6301
-143.522 83.1904 29.0639 -176.166 -31.1519 -168.84 -1.57743 -0.352402 2.34725 3.15306 -12.4775 0.830097 -11.3704 0.626599 -6.44654 24.0575 0.896355 -11.9372 -0.0 0.0 0.0 -0.0 0.0 0.0 6.40171e-14 -3.69853e-14 6.0586e-13 59.1592 43.7001 -9.77775 -15.7414 -9.33526 27.7607 -0.0860917 -9.42553 -1.33383 1.11627e-09 2.93854e-09 -7.44752e-10 1.94214e-09 5.08069e-09 -1.28498e-09 1.11628e-09 2.93853e-09 -7.44766e-10 7.73091 5.47488 0.417314 1.11627e-09 2.93854e-09 -7.44752e-10 2.90554 0.965183 0.102902 1.11628e-09 2.93854e-09 -7.44752e-10 10.2786 0.731801 0.0259123 1.11627e-09 2.93854e-09 -7.44745e-10 2.22167 -0.733487 -0.20892 6.39641e-14 -3.69883e-14 6.0562e-13 -61.1192 -0.379095 7.7793 8.18615 -3.32883 -14.2232 0.463904 21.3597 -3.11385 -3.16867e-09 -2.27699e-09 2.88155e-09 -5.4007e-09 -3.9409e-09 5.0462e-09 -3.16868e-09 -2.27699e-09 2.88157e-09 -7.73091 5.47488 -0.417314 -3.16867e-09 -2.27699e-09 2.88156e-09 -2.90554 0.965183 -0.102902 -3.16868e-09 -2.27699e-09 2.88156e-09 -10.2786 0.731801 -0.0259123 -3.16867e-09 -2.27699e-09 2.88155e-09 -2.22167 -0.733487 0.20892 -2.03217e-16 0.0 -3.88251e-19 5.4243 -24.2421 22.9512 -0.0249052 4.94892 -0.220791 -9.57828 -20.0883 -29.5141 2.03217e-16 0.0 3.88251e-19 -4.97932 -11.7892 -12.2439 0.0400207 8.26238 -0.053507 4.412 -13.5843 15.8438
-143.578 83.3616 29.3396 -175.92 -30.6849 -169.012 -1.99925 -0.429521 2.82971 3.86256 -15.1866 1.01294 -13.7733 0.728351 -7.82744 29.2944 1.17215 -14.5299 -0.0 0.0 0.0 -0.0 0.0 0.0 6.78535e-14 -1.43117e-14 6.9356e-13 75.4871 53.0807 -14.4416 -17.9913 -10.6773 34.0006 -0.166384 -11.5473 -1.64543 1.33404e-09 3.31723e-09 -8.81214e-10 2.32029e-09 5.73512e-09 -1.52011e-09 1.33404e-09 3.31722e-09 -8.8123e-10 7.73091 5.47488 0.417314 1.33404e-09 3.31723e-09 -8.81214e-10 2.90554 0.965183 0.102902 1.33405e-09 3.31723e-09 -8.81212e-10 10.2786 0.731801 0.0259123 1.33403e-09 3.31723e-09 -8.81204e-10 2.22167 -0.733487 -0.20892 6.77718e-14 -1.43139e-14 6.93311e-13 -74.5199 -0.384316 9.48992 9.80511 -4.02374 -17.4365 0.895413 25.8377 -3.90224 -3.53626e-09 -2.51895e-09 3.37381e-09 -6.02404e-09 -4.35947e-09 5.90415e-09 -3.53627e-09 -2.51895e-09 3.37382e-09 -7.73091 5.47488 -0.417314 -3.53626e-09 -2.51895e-09 3.37382e-09 -2.90554 0.965183 -0.102902 -3.53627e-09 -2.51895e-09 3.37382e-09 -10.2786 0.731801 -0.0259123 -3.53626e-09 -2.51895e-09 3.37381e-09 -2.22167 -0.733487 0.20892 -2.03217e-16 0.0 -3.88251e-19 8.45293 -27.4082 28.1686 -0.0257402 5.76216 -0.24823 -14.5817 -23.0472 -36.7324 2.03217e-16 0.0 3.88251e-19 -6.58764 -13.5937 -15.0298 0.0504872 10.1943 -0.0871176 6.68579 -16.9963 19.7313
